<svg id="Layer_1" data-name="Layer 1" xmlns="http://www.w3.org/2000/svg" width="156.14999" height="68.012" viewBox="0 0 156.14999 68.012"><defs><style>.cls-1{opacity:0.9;}.cls-2{fill:none;}.cls-3{fill:#070606;opacity:0.8;isolation:isolate;}.cls-4{fill:#383737;}.cls-5{opacity:0.11;}</style></defs><title>logo</title><g class="cls-1"><rect class="cls-2" width="156.14999" height="68.012"/><path class="cls-3" d="M134.459,41.871a8.3,8.3,0,0,1-2.67,1.2,11.482,11.482,0,0,1-2.987.423,6.6,6.6,0,0,1-5.18-1.963,8.471,8.471,0,0,1-1.68-5.71V28.643h-2.263V23.905h2.265v-3.96l7-.813v4.773h4.243l-.707,4.738h-3.536v7.106a2.97512,2.97512,0,0,0,.389,1.75,1.3,1.3,0,0,0,1.09.512,3.59093,3.59093,0,0,0,1.768-.495ZM111.371,23.202a12.40023,12.40023,0,0,1,4.013.654,9.6,9.6,0,0,1,3.235,1.785l-2.475,3.783a9.72755,9.72755,0,0,0-2.192-1.007,7.547,7.547,0,0,0-2.3-.372q-1.591,0-1.591.848a.826.826,0,0,0,.212.584,3.2858,3.2858,0,0,0,1.007.565q.8.336,2.564.865a10.1521,10.1521,0,0,1,4.189,2.245,5.186,5.186,0,0,1,1.361,3.837,5.40011,5.40011,0,0,1-1.149,3.395,7.36905,7.36905,0,0,1-3.182,2.3,12.33894,12.33894,0,0,1-4.614.813,13.43986,13.43986,0,0,1-4.65-.8,10.409,10.409,0,0,1-3.66-2.21l3.323-3.677a9.353,9.353,0,0,0,2.316,1.361,6.55612,6.55612,0,0,0,2.49.512,2.93115,2.93115,0,0,0,1.468-.3.951.951,0,0,0,.512-.867,1.129,1.129,0,0,0-.23-.76,2.4,2.4,0,0,0-.934-.529q-.707-.266-2.475-.8-5.481-1.627-5.481-6.117a5.26912,5.26912,0,0,1,.973-3.113,6.581,6.581,0,0,1,2.828-2.192,11.01,11.01,0,0,1,4.438-.8ZM95,31.13a5.96508,5.96508,0,0,0-.512-2.581,1.759,1.759,0,0,0-1.712-.918,2.013,2.013,0,0,0-1.75.813,6.22588,6.22588,0,0,0-.76,2.934h4.738Zm6.894,1.98a21.96587,21.96587,0,0,1-.142,2.228H90.298a3.72,3.72,0,0,0,1.185,2.564,4.38592,4.38592,0,0,0,2.6.654,5.448,5.448,0,0,0,2.016-.406,11.788,11.788,0,0,0,2.263-1.256l2.828,3.818a11.98593,11.98593,0,0,1-7.783,2.793,9.88,9.88,0,0,1-7.6-2.775,10.344,10.344,0,0,1-2.581-7.336,12.03492,12.03492,0,0,1,1.079-5.137,8.577,8.577,0,0,1,3.2-3.677,9.29192,9.29192,0,0,1,5.128-1.361,9.832,9.832,0,0,1,4.88,1.166,7.9761,7.9761,0,0,1,3.235,3.393,11.519,11.519,0,0,1,1.15,5.331ZM82.125,23.316a6.22555,6.22555,0,0,1,1.91.311l-1.09,6.753a6.16424,6.16424,0,0,0-1.733-.283,2.693,2.693,0,0,0-2.316,1.026,8.28389,8.28389,0,0,0-1.22,3.076v8.593h-7V23.91h6.118l.565,3.535a6.491,6.491,0,0,1,1.91-3.006,4.289,4.289,0,0,1,2.866-1.124Z"/><path class="cls-3" d="M30.764,38.59a2.317,2.317,0,0,0,1.185-.311,2.858,2.858,0,0,0,.9-.813v-2.8h-.743a3.658,3.658,0,0,0-2.192.531,1.9,1.9,0,0,0-.707,1.627,1.868,1.868,0,0,0,.425,1.29,1.438,1.438,0,0,0,1.132.478m8.91-1.91a3.324,3.324,0,0,0,.248,1.468,1.586,1.586,0,0,0,.884.724l-1.413,4.491a8.63668,8.63668,0,0,1-3.113-.725,4.681,4.681,0,0,1-1.98-1.891,6.36,6.36,0,0,1-5.693,2.758,6.168,6.168,0,0,1-4.514-1.68,5.8,5.8,0,0,1-1.712-4.332,5.537,5.537,0,0,1,2.335-4.808,11.636,11.636,0,0,1,6.788-1.662h1.343v-.467a2.49,2.49,0,0,0-.565-1.91,3.39991,3.39991,0,0,0-2.157-.5,11.52535,11.52535,0,0,0-2.179.265,22.47588,22.47588,0,0,0-2.705.724l-1.521-4.455a21.42817,21.42817,0,0,1,7.461-1.485,9.91,9.91,0,0,1,6.469,1.712,6.51506,6.51506,0,0,1,2.016,5.25Z"/><path class="cls-3" d="M64.861,40.009a5.40888,5.40888,0,0,1,1.283,1.245,4.843,4.843,0,0,1,.934,2.917,5.434,5.434,0,0,1-2.702,4.792,14.31,14.31,0,0,1-7.761,1.75,17.33694,17.33694,0,0,1-5.816-.778,5.469,5.469,0,0,1-2.934-2.156,6.4,6.4,0,0,1-.831-3.359h5.6q.327.026.658.039a1.869,1.869,0,0,0,.282,1.09,1.712,1.712,0,0,0,1.026.567,10.38066,10.38066,0,0,0,2.228.176,5.05118,5.05118,0,0,0,2.564-.442,1.365,1.365,0,0,0,.654-1.185,1.222,1.222,0,0,0-.478-.99,1.26209,1.26209,0,0,0-.226-.146,14.70022,14.70022,0,0,0,5.52-3.527"/><path class="cls-4" d="M41.717,38.718a.84932.84932,0,0,1-.475-1.55273l.412-.25977-.564-.01953a.85014.85014,0,0,1,.014-1.7002h.047l2.075.0752a10.1,10.1,0,0,0,.94495,2.06738l-2.031,1.27442A.84715.84715,0,0,1,41.717,38.718ZM65.722,27.4748h0a10.02745,10.02745,0,0,0-1.687-2.7002,6.97144,6.97144,0,0,0,1.86206-.51367,3.86849,3.86849,0,0,0,1.8-1.43066,5.48556,5.48556,0,0,0,.4-1.0293,1.05137,1.05137,0,0,1,1.017-.791,1.02309,1.02309,0,0,1,.261.03321,1.054,1.054,0,0,1,.75794,1.27832c-.035.12793-.072.25-.108.35839a1.19458,1.19458,0,0,1,0,.18457,4.81562,4.81562,0,0,1-.535,1.0752,7.6468,7.6468,0,0,1-1.759,2.19434,8.149,8.149,0,0,1-2,1.34277Z"/><path class="cls-5" d="M53.984,42.49a12.769,12.769,0,0,1-5.45-1.231,10.072,10.072,0,0,1-5.4-6.3,1.67186,1.67186,0,0,1-.061-.224,10.071,10.071,0,0,1,1.524-8.154,12.7,12.7,0,0,1,7.181-5.064c.058-.019.12-.035.183-.049a12.688,12.688,0,0,1,8.749.794v.005a9.83307,9.83307,0,0,1,3.933,14.674A12.692,12.692,0,0,1,57.483,42a2.0371,2.0371,0,0,1-.217.058A12.692,12.692,0,0,1,53.984,42.49Zm2.639-20.428a10.909,10.909,0,0,0-4.25.858,11.951,11.951,0,0,0-6.061,5.222,8.336,8.336,0,0,0-.767,6.735,7.465,7.465,0,0,0,4.656,4.577,10.958,10.958,0,0,0,7.783-.275,11.94892,11.94892,0,0,0,6.071-5.223,8.339,8.339,0,0,0,.767-6.735h-.009a7.462,7.462,0,0,0-4.656-4.577A10.94411,10.94411,0,0,0,56.623,22.062Z"/><path class="cls-4" d="M63.479,25.529a9.771,9.771,0,0,0-3.172-2.442,11.246,11.246,0,0,0-3.927-1.09,12.22918,12.22918,0,0,0-4.192.355l-.131.034-.036.011a12.26516,12.26516,0,0,0-3.806,1.792,11.2581,11.2581,0,0,0-2.858,2.9,9.7739,9.7739,0,0,0-1.518,3.65,8.707,8.707,0,0,0,.121,3.772v.047l.016.056.016.058.014.044a8.7002,8.7002,0,0,0,1.784,3.323,9.76786,9.76786,0,0,0,3.138,2.4,11.24713,11.24713,0,0,0,3.918,1.09,12.23706,12.23706,0,0,0,4.181-.349l.05-.011.053-.016.058-.019.042-.011a12.24889,12.24889,0,0,0,3.8-1.793,11.233,11.233,0,0,0,2.85-2.894,9.757,9.757,0,0,0,1.527-3.7,8.7001,8.7001,0,0,0-.156-3.82h0a8.69993,8.69993,0,0,0-1.776-3.383m-2.369-4.085a11.609,11.609,0,0,1,3.769,2.9,10.522,10.522,0,0,1,2.15,4.092h0a10.51969,10.51969,0,0,1,.185,4.617,11.58993,11.58993,0,0,1-1.807,4.394,13.10887,13.10887,0,0,1-3.317,3.375,14.07986,14.07986,0,0,1-4.321,2.045h0q-.065.022-.156.047l-.128.028a14.04868,14.04868,0,0,1-4.794.4,13.09006,13.09006,0,0,1-4.558-1.262,11.62486,11.62486,0,0,1-3.727-2.853,10.52415,10.52415,0,0,1-2.156-4.019c-.015-.051-.03-.092-.037-.123s-.016-.064-.028-.123h0a10.52606,10.52606,0,0,1-.143-4.559,11.6,11.6,0,0,1,1.8-4.332,13.10874,13.10874,0,0,1,3.325-3.379,14.07653,14.07653,0,0,1,4.359-2.052l.115-.034.139-.033h0a14.05907,14.05907,0,0,1,4.776-.4,13.09115,13.09115,0,0,1,4.57,1.264Z"/><path class="cls-4" d="M55.721,38.37909a.45346.45346,0,0,1-.248-.28125.57586.57586,0,0,1,.31995-.68652,17.33877,17.33877,0,0,0,5.4-3.51563,17.1274,17.1274,0,0,0,3.137-4.40722q-.59985.479-1.24.90039a.46114.46114,0,0,1-.67-.15527.57.57,0,0,1,.2-.72559,14.59667,14.59667,0,0,0,1.361-1,9.43835,9.43835,0,0,0,1.109-1.08008h.00806a.48613.48613,0,0,1,.334-.18945.492.492,0,0,1,.369.11426.5381.5381,0,0,1,0,.73828c-.13794.15722-.28039.3125-.427.46289a.49626.49626,0,0,1,.156.64551,17.112,17.112,0,0,1-9.434,9.17675.45907.45907,0,0,1-.194.042A.44439.44439,0,0,1,55.721,38.37909ZM43.375,37.10761H43.367a.53209.53209,0,0,1-.069-.73145.50615.50615,0,0,1,.322-.21875.51521.51521,0,0,1,.381.07911c.861.66015,2.958.35351,5.34594-.34961A51.59583,51.59583,0,0,0,59.465,31.51484a.46538.46538,0,0,1,.37-.0752.45913.45913,0,0,1,.3.23047.57307.57307,0,0,1-.212.72558,52.89731,52.89731,0,0,1-10.387,4.5,15.41561,15.41561,0,0,1-4.11694.73633,3.37054,3.37054,0,0,1-2.04407-.52343Zm.569-1.08887a.46651.46651,0,0,1-.42407-.55176,4.119,4.119,0,0,1,.41394-.83593.45783.45783,0,0,1-.032-.16309,8.12767,8.12767,0,0,1,2.8-5.1543,19.0103,19.0103,0,0,1,6.226-4.34375h.00805a.44923.44923,0,0,1,.609.31543.57989.57989,0,0,1-.35095.6709,17.78048,17.78048,0,0,0-5.825,4.0752,7.17879,7.17879,0,0,0-2.261,3.38183,15.03069,15.03069,0,0,1,2.564-1.80859h0a.45787.45787,0,0,1,.377-.01953.446.446,0,0,1,.261.26953.578.578,0,0,1-.3.70019,13.6306,13.6306,0,0,0-2.464,1.77832A3.62612,3.62612,0,0,0,44.502,35.52558a.55945.55945,0,0,1-.558.5Zm7.248-5.165a.46453.46453,0,0,1-.3-.23633.57117.57117,0,0,1,.22-.72363,32.34234,32.34234,0,0,1,3.973-2.07129,28.75886,28.75886,0,0,1,4.048-1.457h.009a.45068.45068,0,0,1,.56994.376.57918.57918,0,0,1-.411.63769,27.75769,27.75769,0,0,0-3.9,1.40039,31.51925,31.51925,0,0,0-3.837,2,.45734.45734,0,0,1-.264.084.49847.49847,0,0,1-.10779-.00879Z"/></g></svg>