<svg id="Layer_1" data-name="Layer 1" xmlns="http://www.w3.org/2000/svg" width="796.324" height="146.806" viewBox="0 0 796.324 146.806"><defs><style>.cls-1{fill:#4a5977;}.cls-1,.cls-2,.cls-3{fill-rule:evenodd;}.cls-2{fill:#b7b7b7;}.cls-3{fill:#707070;opacity:0.2;}</style></defs><title>viz-intro</title><path class="cls-1" d="M626.414,0h157.91a12.0026,12.0026,0,0,1,12.00022,12.00021V113.26389A12.00236,12.00236,0,0,1,784.324,125.2637v-.01177H732.49715v15.17051H750.8468V146.806h-88.562v-.00107h7.55748l.06037.0008,23.86109-.0008a13.989,13.989,0,0,0,11.74672-6.38249h20.98619V125.25193l-18.733.0004v-5.977l76.56031-.0004v-.01164a5.99993,5.99993,0,0,0,5.99971-5.99944V101.535h-82.56V95.5346h82.56V12.00021a5.99992,5.99992,0,0,0-5.99971-5.9997H626.414a5.99992,5.99992,0,0,0-5.99971,5.9997V32.71243h-6.00051V12.00021A12.0026,12.0026,0,0,1,626.414,0Z"/><path class="cls-1" d="M611.255,32.712h66.15777a12.00258,12.00258,0,0,1,12.00048,12.00022h-.01178V67.02011H683.4245V44.71224h-.01178a5.99992,5.99992,0,0,0-6-5.99971h-66.1575a6.02055,6.02055,0,0,0-6.01175,5.99971l.0004,90.09288h.01165a6.00064,6.00064,0,0,0,5.99943,6.01215l47.16756-.00027a13.988,13.988,0,0,0,10.922,5.97655l-58.08955.00067a12.00306,12.00306,0,0,1-11.99981-11.9891h.01178l-.0004-90.09288A11.983,11.983,0,0,1,611.255,32.712Zm7.56472,95.32742V51.47832h51.828V67.02011h6.00051V45.47781H612.81919v88.562h31.913a3.19112,3.19112,0,1,1-3.19105,3.19118,3.19125,3.19125,0,0,1,3.19105-3.19118H655.958c-.03561-.407-.055-.8183-.055-1.23455v-4.76582Z"/><path class="cls-1" d="M669.90265,67.01971h23.86109a14.00248,14.00248,0,0,1,14.00034,14.00007h-.01178l-.0004,51.78588h.01178a13.9824,13.9824,0,0,1-13.99913,13.98789v.01178l-.00081-.01178-23.86109.00067a13.98376,13.98376,0,0,1-14.00007-13.989V81.02a14.019,14.019,0,0,1,.39911-3.33171v-.50351h.13317a14.014,14.014,0,0,1,13.46779-10.16511ZM662.8808,77.18482H700.786a8.00923,8.00923,0,0,0-7.02226-4.16461H669.90305a8.00917,8.00917,0,0,0-7.02225,4.16461Zm38.89455,6.00051H661.90308v44.85411H701.775l.0004-44.85411Zm-.10694,50.85448h-19.4367a3.19112,3.19112,0,1,0,3.191,3.19118,3.19126,3.19126,0,0,0-3.191-3.19118H661.998a8.02618,8.02618,0,0,0,7.90467,6.77746l23.86109-.00067v-.01178l.00081.01178a8.0249,8.0249,0,0,0,7.90386-6.77679Z"/><path class="cls-1" d="M317.40422,37.28793,289.58878,66.56746a13.17227,13.17227,0,0,1-.0008,14.46972l27.816,29.27966a13.16457,13.16457,0,1,1-4.33806,4.122L285.24964,85.15922a13.07864,13.07864,0,0,1-3.66122,1.46409v22.229a13.1569,13.1569,0,1,1-6.00038,0v-22.229a13.09869,13.09869,0,0,1-3.66163-1.46436l-27.81624,29.27953a13.15708,13.15708,0,1,1-4.33833-4.122l27.81624-29.27967a13.16705,13.16705,0,0,1,17.66223-18.59136l27.81558-29.27966a13.16151,13.16151,0,1,1,23.93176-4.75418l33.69951,14.97765h-14.701l-21.42545-9.52228a13.19444,13.19444,0,0,1-7.50449,4.88534V60.98092a13.15689,13.15689,0,1,1-6.00037,0V38.75228a13.07877,13.07877,0,0,1-3.66163-1.46435Zm82.83707,19.23219,21.02928,9.34627a13.16456,13.16456,0,1,1,13.50486,20.75692v22.229a13.15689,13.15689,0,1,1-6.00037,0v-22.229a13.09076,13.09076,0,0,1-3.66123-1.46409l-27.81558,29.27926a13.15708,13.15708,0,1,1-4.33833-4.122l27.81557-29.27926a13.198,13.198,0,0,1-1.93146-9.71581L385.541,56.52012Zm34.53414,58.64539v.00067a7.17771,7.17771,0,0,0-6.00037,0v-.00067a7.16055,7.16055,0,1,0,6.00037,0Zm-41.82274,3.8474-.00026.0004a7.19413,7.19413,0,0,0-3.0125-3.51132l-.00522-.00308c-.11042-.06558-.22312-.12742-.33769-.187l-.036-.019-.05019-.02543-.02757-.01366-.05929-.02917-.01861-.0091-.06892-.03266-.00991-.00455-.07816-.036-.00081-.0004-.07963-.03533-.0083-.00375-.07174-.03078-.0178-.0075-.06264-.02583-.0273-.01138-.05394-.02128-.0368-.01445-.04471-.017-.16462-.06036-.06612-.02316a7.15944,7.15944,0,1,0,4.33873,4.12178Zm34.08323-50.58452.00067.0004a7.19213,7.19213,0,0,0-1.41363,1.69938l-.0079.01325-.01137.01927-.03574.06157-.0079.01325-.08391.15017-.00067.0008-.041.0767-.00227.00481-.03761.07174-.00576.01178-.03333.066-.0087.01794-.02957.05983-.01178.02476-.02543.0542-.01446.031-.00267.00576a7.15663,7.15663,0,0,0,1.63139,8.23659l.0008.00041.06264.05768.03413.03065.02958.02664.06491.05688.00375.00348.06143.05233.03868.03226.0273.02275.06679.05461.00723.00575c.06451.05193.13009.10319.19661.15245l.01138.00829a7.16454,7.16454,0,1,0-.46363-11.12341ZM324.066,66.63772c-.20076,0-.39992.0079-.5964.02423a7.12818,7.12818,0,0,0-2.05674.48343l-.044.0174-.01138.00455-.03226.01365-.04363.01821-.00455.0016-.03908.0166-.041.0178-.00227.0012-.04323.019-.03413.01512-.0087.00415-.04283.01981a7.17154,7.17154,0,1,0,3.00019-.65676Zm-41.75823,1.04-.00388-.00268-.07428-.04443-.00455-.00268-.07027-.041-.01325-.00763-.00067-.00027q-.12527-.07188-.25389-.13853l-.03641-.019a7.1689,7.1689,0,0,0-9.917,9.041l.01981.04818.03332.08044.03453.08.01593.0364.01941.04323.0356.07776.0008.00161.03721.07843.01887.03949.01941.03868a7.15051,7.15051,0,0,0,5.95955,3.96545c4.20329,0,7.62454-2.79381,7.62454-7.15008a7.15921,7.15921,0,0,0-3.44481-6.12444Zm48.92262,53.99587a7.17,7.17,0,0,0-9.48025-6.782l.0004.0008a7.16559,7.16559,0,1,0,9.47985,6.7812Zm-90.95562,0a7.14877,7.14877,0,0,0-1.63594-4.55756l-.00375-.00428a7.16613,7.16613,0,1,0,1.63969,4.56184Zm45.47781,0a7.16971,7.16971,0,0,0-4.1642-6.508v.00107a7.18107,7.18107,0,0,0-6.00038,0v-.00107a7.16589,7.16589,0,1,0,10.16458,6.508Zm31.65883-93.08209.01981.04818.03332.08044.03453.08.01593.03641.01941.04323.0356.07776.0008.0016.03721.07857.01887.03935.01941.03868.03908.07749.00107.00228.00308.00562.05581.10627.00268.00535.0182.03373.04162.07589.00348.006.03949.06947.0261.0451.01753.02958a7.16506,7.16506,0,0,0,4.81521,3.39488l.08807.01633.02422.00455.06411.01058.08874.01405.08927.01325.02918.00415a7.37024,7.37024,0,0,0,1.56915.041c5.75384-.52318,8.9655-7.71113,4.47-12.20646a7.167,7.167,0,0,0-11.721,7.72666Z"/><path class="cls-2" d="M364.24333,50.202a3.00026,3.00026,0,1,0-6.00051,0V65.20134a3.00026,3.00026,0,1,0,6.00051,0V50.202Zm5.98043-3.00019a3.00026,3.00026,0,1,0,0,6.00051H385.223a3.00026,3.00026,0,1,0,0-6.00051Zm26.99834,0a3.00026,3.00026,0,1,0,0,6.00051h14.99919a3.00026,3.00026,0,1,0,0-6.00051Zm26.99874,0a3.00026,3.00026,0,1,0,0,6.00051H439.22a3.00026,3.00026,0,1,0,0-6.00051Zm26.9986,0a3.00026,3.00026,0,1,0,0,6.00051h1.34538v7.65385a3.00025,3.00025,0,1,0,6.0005,0V50.202a3.00064,3.00064,0,0,0-3.0667-3.00019Zm7.34588,25.65337a3.00025,3.00025,0,1,0-6.0005,0V87.85452a3.00025,3.00025,0,1,0,6.0005,0V72.85519Zm0,26.99874a3.00025,3.00025,0,1,0-6.0005,0v14.99933a3.00025,3.00025,0,1,0,6.0005,0V99.85393Zm0,26.99874a3.00025,3.00025,0,1,0-6.0005,0V141.852a3.00025,3.00025,0,1,0,6.0005,0V126.85267Zm-13.49013,19.50911a3.00026,3.00026,0,1,0,0-6.00051H430.076a3.00026,3.00026,0,1,0,0,6.00051Zm-26.99874,0a3.00026,3.00026,0,1,0,0-6.00051h-14.9992a3.00026,3.00026,0,1,0,0,6.00051Zm-26.99861,0a3.00026,3.00026,0,1,0,0-6.00051H376.07852a3.00026,3.00026,0,1,0,0,6.00051Zm-26.99873,0a3.00021,3.00021,0,0,0,.16422-5.996v-9.16759a3.00026,3.00026,0,1,0-6.00051,0v12.16336a3.00066,3.00066,0,0,0,3.06671,3.00019Zm-5.83629-27.163a3.00026,3.00026,0,1,0,6.00051,0V104.19949a3.00026,3.00026,0,1,0-6.00051,0v14.99933Zm0-26.99874a3.00026,3.00026,0,1,0,6.00051,0V77.20075a3.00026,3.00026,0,1,0-6.00051,0Z"/><path class="cls-1" d="M82.58792,97.65264V92.20048h6.00037v5.45216h7.26584a5.00123,5.00123,0,0,1,5.00072,4.99924l-.01178.0008-.0004,26.79812h.01178a4.98094,4.98094,0,0,1-4.99924,4.98813v.01178l-.00067-.01178-90.8547.0004A4.98262,4.98262,0,0,1,1.46455,132.986v-.01178a4.97476,4.97476,0,0,1-1.46476-3.52378H.01157l-.0004-26.79771a4.984,4.984,0,0,1,1.45338-3.53555h.01178A4.97308,4.97308,0,0,1,5.0001,97.65264h7.26505V92.20075h6.0005v5.45189Zm12.2782,6.00051H5.98812l.0004,24.80923,88.8772-.0004.0004-24.80883ZM4.99984,55.40281a4.97358,4.97358,0,0,0-3.52351,1.46476H1.46455A4.98334,4.98334,0,0,0,.01117,60.40313l.0004,26.7973H-.00021a4.97617,4.97617,0,0,0,1.46476,3.52378V90.736a4.98359,4.98359,0,0,0,3.53529,1.45338l90.8547-.00027.00067.01165V92.1891a4.98116,4.98116,0,0,0,4.99924-4.98826h-.01178l.0004-26.79771h.01178a4.98874,4.98874,0,0,0-1.47132-3.52953l.00616-.006a4.98542,4.98542,0,0,0-3.53556-1.46476H88.58829v-5.463h7.26625l.00067.01178a5.001,5.001,0,0,0,4.99924-5.00031h-.01178l.0004-26.79771h.01178A4.98877,4.98877,0,0,0,99.38353,14.624l.00616-.006a4.98537,4.98537,0,0,0-3.53556-1.46476H4.99984A4.97354,4.97354,0,0,0,1.47633,14.618H1.46455A4.98308,4.98308,0,0,0,.01117,18.15317l.0004,26.79811-.01178.00067H.01157a4.98116,4.98116,0,0,0,4.98827,4.99937v-.01178h7.26531v5.46327Zm13.26581,0V49.93954l64.32227.00027v5.463Zm76.60047,6.00038-.0004,24.809-88.8772.00027-.0004-24.80923Zm0-42.24956-.0004,24.80923-88.8772-.00027-.0004-24.809Z"/><path class="cls-3" d="M146.289,75.8721a2.00012,2.00012,0,1,1,0-4.00024h23.77958l-7.18754-7.18769a1.99965,1.99965,0,1,1,2.82793-2.82793l9.948,9.948a2.72528,2.72528,0,0,1,.574,2.93353,1.99062,1.99062,0,0,1-.574,1.20189l-9.948,9.94843a1.9997,1.9997,0,1,1-2.82793-2.82807l7.18754-7.18795Z"/><path class="cls-3" d="M517.71449,75.8721a2.00012,2.00012,0,1,1,0-4.00024h23.77959l-7.18755-7.18769a1.99965,1.99965,0,0,1,2.82793-2.82793l9.94816,9.948a2.72462,2.72462,0,0,1,.57391,2.93353,1.9911,1.9911,0,0,1-.57391,1.20189l-9.94816,9.94843a1.9997,1.9997,0,0,1-2.82793-2.82807l7.18755-7.18795Z"/></svg>