<svg xmlns="http://www.w3.org/2000/svg" viewBox="0 0 58.045 44.319"><defs><style>.a,.b{fill:#fff;}.b,.c{stroke:#4a5977;}.b{stroke-width:2px;}.c,.e{fill:#4a5977;}.d,.e{stroke:none;}.f{fill:none;}</style></defs><g transform="translate(-479 -2180)"><g transform="translate(479 2180)"><g class="a" transform="translate(4443.484 6069)"><path class="d" d="M -4388.439453125 -6025.68017578125 L -4440.48388671875 -6025.68017578125 C -4441.58642578125 -6025.68017578125 -4442.4833984375 -6026.5771484375 -4442.4833984375 -6027.67919921875 L -4442.4833984375 -6065.68017578125 C -4442.4833984375 -6066.7822265625 -4441.58642578125 -6067.67919921875 -4440.48388671875 -6067.67919921875 L -4414.71240234375 -6067.67919921875 L -4414.71240234375 -6046.955078125 L -4414.71240234375 -6045.9541015625 L -4413.71142578125 -6045.955078125 L -4386.43896484375 -6045.986328125 L -4386.43896484375 -6027.67919921875 C -4386.43896484375 -6026.5771484375 -4387.33642578125 -6025.68017578125 -4388.439453125 -6025.68017578125 Z"/><path class="e" d="M -4388.439453125 -6026.68017578125 C -4387.8876953125 -6026.68017578125 -4387.43896484375 -6027.12841796875 -4387.43896484375 -6027.67919921875 L -4387.43896484375 -6044.98486328125 L -4413.7099609375 -6044.955078125 L -4415.71240234375 -6044.95263671875 L -4415.71240234375 -6046.955078125 L -4415.71240234375 -6066.67919921875 L -4440.48388671875 -6066.67919921875 C -4441.03515625 -6066.67919921875 -4441.4833984375 -6066.23095703125 -4441.4833984375 -6065.68017578125 L -4441.4833984375 -6027.67919921875 C -4441.4833984375 -6027.12841796875 -4441.03515625 -6026.68017578125 -4440.48388671875 -6026.68017578125 L -4388.439453125 -6026.68017578125 M -4388.439453125 -6024.68017578125 L -4440.48388671875 -6024.68017578125 C -4442.1376953125 -6024.68017578125 -4443.4833984375 -6026.025390625 -4443.4833984375 -6027.67919921875 L -4443.4833984375 -6065.68017578125 C -4443.4833984375 -6067.333984375 -4442.1376953125 -6068.67919921875 -4440.48388671875 -6068.67919921875 L -4413.71240234375 -6068.67919921875 L -4413.71240234375 -6046.955078125 L -4385.43896484375 -6046.9873046875 L -4385.43896484375 -6027.67919921875 C -4385.43896484375 -6026.025390625 -4386.78515625 -6024.68017578125 -4388.439453125 -6024.68017578125 Z"/></g><g class="b" transform="translate(0 0.001)"><path class="d" d="M3,0H29.76a0,0,0,0,1,0,0V10.44a0,0,0,0,1,0,0H0a0,0,0,0,1,0,0V3A3,3,0,0,1,3,0Z"/><path class="f" d="M3,1H27.76a1,1,0,0,1,1,1V8.44a1,1,0,0,1-1,1H2a1,1,0,0,1-1-1V3A2,2,0,0,1,3,1Z"/></g></g><g transform="translate(483.464 2183.976)"><g class="c"><rect class="d" width="2.232" height="2.232"/><rect class="f" x="0.5" y="0.5" width="1.232" height="1.232"/></g><g class="c" transform="translate(4.464)"><rect class="d" width="2.232" height="2.232"/><rect class="f" x="0.5" y="0.5" width="1.232" height="1.232"/></g><g class="c" transform="translate(8.928)"><rect class="d" width="2.232" height="2.232"/><rect class="f" x="0.5" y="0.5" width="1.232" height="1.232"/></g></g><g class="c" transform="translate(516.516 2180.867)"><rect class="d" width="2.976" height="21.453"/><rect class="f" x="0.5" y="0.5" width="1.976" height="20.453"/></g><g class="c" transform="translate(535.546 2185.208) rotate(90)"><rect class="d" width="2.976" height="27.53"/><rect class="f" x="0.5" y="0.5" width="1.976" height="26.53"/></g><g class="c" transform="translate(525.516 2180.867)"><rect class="d" width="2.976" height="21.453"/><rect class="f" x="0.5" y="0.5" width="1.976" height="20.453"/></g><g class="c" transform="translate(535.546 2193.136) rotate(90)"><rect class="d" width="2.976" height="27.53"/><rect class="f" x="0.5" y="0.5" width="1.976" height="26.53"/></g></g></svg>