<?xml version="1.0" encoding="utf-8"?>
<!-- Generator: Adobe Illustrator 22.1.0, SVG Export Plug-In . SVG Version: 6.00 Build 0)  -->
<svg version="1.1" id="Layer_1" xmlns="http://www.w3.org/2000/svg" xmlns:xlink="http://www.w3.org/1999/xlink" x="0px" y="0px"
	 width="161.506px" height="45.686px" viewBox="0 0 161.506 45.686" style="enable-background:new 0 0 161.506 45.686;"
	 xml:space="preserve">
<style type="text/css">
	.st0{fill:#070606;}
	.st1{fill:#E4E4E4;}
	.st2{fill:#FFFFFF;}
</style>
<g id="logo" transform="translate(80.761 22.833)">
	<path id="Path_11" class="st0" d="M-20.966-9.694c-0.8331,0.0986-1.5884-0.4969-1.687-1.33s0.4969-1.5884,1.33-1.687
		c1.6388-0.2833,3.1608-1.0341,4.383-2.162c1.2233-1.0417,2.108-2.4247,2.541-3.972c0.2068-0.8102,1.0313-1.2993,1.8415-1.0925
		c0.8102,0.2068,1.2993,1.0313,1.0925,1.8415c-0.5824,2.1359-1.7901,4.0488-3.468,5.493c-1.6873,1.5358-3.7842,2.5487-6.036,2.916"
		/>
	<path id="Path_12" class="st0" d="M-22.94-12.28c-0.7501-0.139-1.3537-0.6964-1.552-1.433c-0.1-0.65,0.426-1.059,1.182-0.915
		c1.9387,0.3404,3.9346,0.1064,5.742-0.673c1.518-0.594,2.7037-1.8172,3.25-3.353c0.179-0.556,0.926-0.7,1.669-0.334
		c0.6836,0.2591,1.1047,0.9485,1.023,1.675c-0.6816,1.9385-2.1709,3.4859-4.082,4.241c-2.2816,0.9634-4.795,1.2387-7.231,0.792"/>
	<path id="Path_13" class="st0" d="M-51.803,5.367c-0.5778,0.3487-1.3289,0.1629-1.6776-0.4149
		c-0.3413-0.5655-0.1714-1.2999,0.3836-1.6581l4.573-2.866c0.5724-0.359,1.3275-0.1859,1.6865,0.3865
		c0.359,0.5724,0.186,1.3275-0.3865,1.6865L-51.803,5.367z"/>
	<path id="Path_14" class="st0" d="M-53.314,2.893c-0.6765-0.0008-1.2244-0.5499-1.2236-1.2264s0.5499-1.2244,1.2264-1.2236
		c0.0281,0,0.0561,0.001,0.0842,0.003l5.383,0.2c0.6765,0.0008,1.2244,0.5499,1.2236,1.2264s-0.5499,1.2244-1.2264,1.2236
		c-0.0281,0-0.0561-0.001-0.0842-0.003L-53.314,2.893z"/>
	<path id="Path_15" class="st0" d="M-19.062,7.392c0.7112,0.4914,1.3358,1.0977,1.848,1.794c0.8909,1.2177,1.3632,2.6913,1.346,4.2
		c0.0461,2.8367-1.446,5.4764-3.9,6.9c-3.4144,1.8805-7.292,2.7546-11.183,2.521c-2.8367,0.1051-5.6706-0.2739-8.38-1.121
		c-1.7229-0.5223-3.215-1.6188-4.228-3.107c-0.8371-1.4724-1.2523-3.1471-1.2-4.84h8.075c0.314,0.0253,0.6303,0.044,0.949,0.056
		c-0.0293,0.5526,0.1125,1.1008,0.406,1.57c0.3814,0.4374,0.9047,0.7263,1.478,0.816c1.0578,0.1996,2.134,0.2844,3.21,0.253
		c1.2658,0.1138,2.5394-0.1058,3.694-0.637c0.5938-0.3624,0.9519-1.0115,0.942-1.707c0.0094-0.558-0.2462-1.0874-0.689-1.427
		c-0.1005-0.0817-0.2095-0.1525-0.325-0.211c3-1.0744,5.7188-2.8118,7.954-5.083"/>
	<path id="Path_16" class="st0" d="M80.745,9.926c-1.1695,0.8013-2.4721,1.3884-3.847,1.734c-1.4003,0.3914-2.8461,0.5965-4.3,0.61
		c-2.7825,0.1969-5.5114-0.8369-7.465-2.828c-1.7752-2.3594-2.6349-5.2822-2.42-8.227V-9.128h-3.261v-6.828h3.253v-5.706l10.1-1.166
		v6.877h6.114l-1.018,6.828h-5.096V1.116c-0.0767,0.878,0.1192,1.7583,0.561,2.521c0.3702,0.4891,0.9572,0.765,1.57,0.738
		c0.8968-0.0129,1.7748-0.2586,2.548-0.713L80.745,9.926z M47.477-16.974c1.966-0.0063,3.9196,0.312,5.782,0.942
		c1.7057,0.5477,3.2887,1.4215,4.661,2.573l-3.566,5.45c-0.9884-0.6128-2.0492-1.1002-3.158-1.451
		c-1.0693-0.3488-2.1862-0.5296-3.311-0.536c-1.528,0-2.292,0.4073-2.292,1.222c-0.0128,0.3086,0.0947,0.6102,0.3,0.841
		c0.4318,0.3549,0.9231,0.6304,1.451,0.814c0.764,0.3227,1.9953,0.7383,3.694,1.247c2.2395,0.5852,4.3082,1.6936,6.036,3.234
		c1.3796,1.4988,2.0876,3.4959,1.96,5.529c0.0216,1.7716-0.5623,3.4974-1.655,4.892c-1.2009,1.4979-2.7854,2.6421-4.585,3.311
		c-2.1209,0.8113-4.3776,1.2088-6.648,1.171c-2.2834,0.016-4.5517-0.372-6.7-1.146c-1.9591-0.6854-3.7546-1.77-5.273-3.185
		l4.789-5.3c1.0126,0.8106,2.1368,1.4707,3.338,1.96c1.1367,0.4779,2.356,0.7286,3.589,0.738
		c0.7306,0.0413,1.4594-0.1079,2.115-0.433c0.4642-0.2414,0.7505-0.726,0.738-1.249c0.0256-0.3932-0.0924-0.7822-0.332-1.095
		c-0.3854-0.3526-0.8455-0.6135-1.346-0.763c-0.6787-0.256-1.8673-0.638-3.566-1.146c-5.2667-1.5627-7.9-4.501-7.9-8.815
		c-0.0195-1.6058,0.4706-3.1764,1.4-4.486c1.0406-1.4088,2.4511-2.5018,4.075-3.158c2.0291-0.8221,4.2065-1.2154,6.395-1.155
		L47.477-16.974z M23.888-5.551c0.0337-1.2791-0.2184-2.5497-0.738-3.719c-0.482-0.8964-1.4536-1.4175-2.467-1.323
		c-0.9848-0.0641-1.9347,0.3771-2.521,1.171c-0.7077,1.2976-1.0838,2.75-1.095,4.228h6.828L23.888-5.551z M33.822-2.698
		c-0.0122,1.0727-0.079,2.1441-0.2,3.21h-16.51c0.0613,1.4079,0.6745,2.7349,1.707,3.694c1.1198,0.6972,2.4296,1.0266,3.746,0.942
		c0.995-0.0094,1.9792-0.208,2.9-0.585c1.1501-0.4818,2.2437-1.0888,3.261-1.81l4.075,5.5
		c-3.1426,2.6292-7.1177,4.0555-11.215,4.024c-4.0543,0.2914-8.0398-1.1643-10.952-4C8.066,5.3715,6.7319,1.5794,6.915-2.294
		c-0.0326-2.5509,0.498-5.0777,1.554-7.4c0.9922-2.1756,2.5943-4.0167,4.612-5.3c2.2199-1.3573,4.7872-2.0384,7.388-1.96
		c2.4499-0.0576,4.8727,0.5212,7.032,1.68c2.0085,1.1263,3.6323,2.8299,4.661,4.89c1.1592,2.3911,1.7275,5.0256,1.657,7.682
		L33.822-2.698z M5.336-16.811c0.9351,0.0053,1.8637,0.1568,2.752,0.449l-1.57,9.73c-0.8096-0.2548-1.6515-0.3922-2.5-0.408
		C2.7286-7.134,1.4771-6.5799,0.68-5.562C-0.1981-4.2179-0.796-2.7105-1.078-1.13v12.381h-10.089v-27.207h8.815l0.814,5.094
		c0.4956-1.672,1.4488-3.1721,2.752-4.331c1.1286-1.032,2.5997-1.6089,4.129-1.619L5.336-16.811z"/>
	<path id="Path_17" class="st1" d="M-25.046-18.172c3.8308,1.7895,6.6898,5.1619,7.828,9.234l0,0
		c1.0537,4.0947,0.2654,8.4454-2.158,11.91c-2.4638,3.5789-6.1217,6.1633-10.318,7.29c-0.1029,0.034-0.2077,0.0617-0.314,0.083
		c-4.1971,1.1245-8.6576,0.7164-12.581-1.151c-3.7777-1.7662-6.6131-5.0722-7.783-9.075c-0.0359-0.1058-0.0653-0.2136-0.088-0.323
		c-0.9913-4.0517-0.1897-8.3341,2.2-11.753c2.4695-3.588,6.1387-6.1767,10.347-7.3c0.0861-0.0278,0.1735-0.0511,0.262-0.07
		c4.2047-1.1334,8.676-0.7277,12.608,1.144"/>
	<path id="Path_18" class="st0" d="M-21.054-13.471c-1.2645-1.4759-2.8208-2.6741-4.571-3.519
		c-1.7749-0.8637-3.6928-1.3958-5.659-1.57c-2.0277-0.1798-4.0713-0.0069-6.04,0.511L-37.512-18l-0.052,0.016
		c-1.9631,0.5384-3.8183,1.4119-5.484,2.582c-1.615,1.1302-3.0105,2.5453-4.118,4.176c-1.0797,1.586-1.8239,3.376-2.187,5.26
		c-0.3397,1.8027-0.28,3.6579,0.175,5.435v0.067l0.022,0.081l0.022,0.083l0.02,0.063c0.4961,1.7651,1.3734,3.3999,2.57,4.789
		c1.256,1.449,2.7948,2.6261,4.522,3.459c1.771,0.8621,3.6842,1.3941,5.646,1.57c2.0221,0.1815,4.0604,0.0123,6.025-0.5l0.072-0.016
		l0.076-0.022l0.083-0.027L-30.06,9c1.9588-0.54,3.8097-1.4142,5.471-2.584c1.611-1.1289,3.0028-2.542,4.107-4.17
		c1.0936-1.6053,1.8426-3.4198,2.2-5.329c0.3336-1.8273,0.2571-3.7059-0.224-5.5l0,0c-0.4812-1.7943-1.3553-3.4591-2.559-4.874
		 M-24.479-19.343c2.0792,1.004,3.9279,2.4275,5.43,4.181c1.4582,1.7124,2.5171,3.7277,3.1,5.9l0,0
		c0.581,2.1705,0.6722,4.4429,0.267,6.653c-0.4202,2.2675-1.3054,4.4235-2.6,6.332c-1.2851,1.8976-2.9048,3.5454-4.78,4.863
		c-1.8922,1.33-3.9978,2.3267-6.226,2.947l0,0c-0.0627,0.0207-0.1373,0.043-0.224,0.067l-0.184,0.04
		c-2.2527,0.5864-4.5896,0.7799-6.908,0.572c-2.2813-0.2026-4.5066-0.819-6.567-1.819c-2.0509-0.991-3.8781-2.3898-5.37-4.111
		c-1.4466-1.68-2.5071-3.6567-3.107-5.791c-0.022-0.074-0.043-0.132-0.054-0.177s-0.022-0.092-0.04-0.177l0,0
		c-0.5481-2.1486-0.6184-4.3913-0.206-6.57c0.4288-2.2351,1.3094-4.3592,2.588-6.242c1.2877-1.901,2.9113-3.5513,4.791-4.87
		c1.9079-1.3389,4.0324-2.3388,6.28-2.956l0.166-0.049l0.2-0.047l0,0c2.2441-0.5824,4.5716-0.7752,6.881-0.57
		c2.2849,0.199,4.5144,0.813,6.579,1.812L-24.479-19.343z"/>
	<path id="Path_19" class="st0" d="M-68.672,5.197c0.599,0.0062,1.1886-0.1489,1.707-0.449c0.5122-0.2927,0.9556-0.6921,1.3-1.171
		V-0.46h-1.07c-1.107-0.084-2.2122,0.1837-3.158,0.765c-0.7055,0.5653-1.0865,1.4425-1.018,2.344
		c-0.0365,0.6745,0.182,1.3381,0.612,1.859c0.4133,0.462,1.0117,0.7147,1.631,0.689 M-55.829,2.445
		c-0.0424,0.7229,0.0796,1.4461,0.357,2.115c0.2804,0.4938,0.7345,0.8656,1.274,1.043l-2.037,6.471
		c-1.5473-0.0662-3.0687-0.4206-4.486-1.045c-1.2013-0.6037-2.1948-1.5526-2.853-2.725c-1.8343,2.6863-4.9549,4.199-8.2,3.975
		c-2.405,0.107-4.7505-0.7662-6.5-2.42c-1.6589-1.6442-2.5535-3.9079-2.467-6.242c-0.1417-2.7339,1.1281-5.3495,3.364-6.929
		c2.9377-1.7836,6.3524-2.6214,9.782-2.4h1.936v-0.673c0.1233-0.9906-0.1716-1.9878-0.814-2.752
		c-0.9276-0.5782-2.0221-0.8292-3.109-0.713c-1.0564,0.0268-2.1078,0.1544-3.14,0.381c-1.3204,0.2662-2.623,0.6146-3.9,1.043
		l-2.191-6.419c3.4273-1.3489,7.0684-2.0736,10.751-2.14c3.2994-0.2835,6.5948,0.5886,9.322,2.467
		c2.0614,1.9535,3.1276,4.7352,2.9,7.566L-55.829,2.445z"/>
	<path id="Path_20" class="st2" d="M-19.134-11.031c-1.1127-3.1068-3.5835-5.5351-6.709-6.594
		c-3.6604-1.246-7.6506-1.1066-11.215,0.392l0,0c-3.6914,1.427-6.7767,4.0852-8.734,7.525c-1.7282,2.9318-2.1302,6.4595-1.106,9.705
		c1.1127,3.1068,3.5835,5.5351,6.709,6.594c3.6607,1.2451,7.6509,1.1045,11.215-0.395l0,0c3.6966-1.4244,6.7871-4.0828,8.748-7.525
		c1.7282-2.9318,2.1302-6.4595,1.106-9.705"/>
	<path id="Path_21" class="st0" d="M-19.372-8.748c0.1566-0.376,0.5828-0.5603,0.964-0.417
		c0.3548,0.1795,0.497,0.6126,0.3176,0.9675c-0.0025,0.0049-0.005,0.0097-0.0076,0.0145c-2.5884,6.0426-7.4824,10.8016-13.595,13.22
		c-0.323,0.1541-0.7098,0.0171-0.8638-0.306c-0.0145-0.0304-0.0266-0.0618-0.0362-0.094c-0.1154-0.3988,0.0809-0.8217,0.46-0.991
		c2.8872-1.1877,5.5263-2.9056,7.781-5.065c2.0898-2.1242,3.7777-4.6093,4.982-7.335"/>
	<path id="Path_22" class="st0" d="M-18.721-10.734c0.2329-0.3086,0.6718-0.3699,0.9804-0.137
		c0.0115,0.0087,0.0227,0.0177,0.0336,0.027c0.2808,0.2987,0.2808,0.7643,0,1.063c-0.549,0.6322-1.149,1.2182-1.794,1.752
		c-0.6743,0.5585-1.3798,1.0784-2.113,1.557c-0.3053,0.212-0.7247,0.1363-0.9366-0.169c-0.0123-0.0178-0.0238-0.0361-0.0344-0.055
		c-0.1783-0.3747-0.0497-0.8235,0.3-1.047c0.6803-0.443,1.3347-0.9244,1.96-1.442c0.575-0.4734,1.1101-0.9931,1.6-1.554"/>
	<path id="Path_23" class="st0" d="M-50.032,3.219c-0.3101-0.2671-0.3542-0.7313-0.1-1.052
		c0.2154-0.3329,0.6599-0.4282,0.9929-0.2128c0.0064,0.0042,0.0128,0.0084,0.0191,0.0128c1.24,0.951,4.262,0.509,7.7-0.5
		c5.0707-1.5732,9.9583-3.6853,14.579-6.3c0.2951-0.213,0.707-0.1464,0.92,0.1487c0.0173,0.024,0.033,0.0492,0.047,0.0753
		c0.1746,0.3754,0.0431,0.822-0.307,1.043c-4.7425,2.6885-9.7594,4.8609-14.965,6.48c-3.813,1.122-7.254,1.548-8.88,0.3"/>
	<path id="Path_24" class="st0" d="M-27.298-12.258c0.3441-0.0983,0.7028,0.101,0.8011,0.4451
		c0.0092,0.0321,0.0158,0.0648,0.0199,0.0979c0.0579,0.4103-0.1943,0.8008-0.592,0.917c-1.9222,0.5315-3.8018,1.2064-5.623,2.019
		c-1.9075,0.8315-3.755,1.7944-5.529,2.882c-0.2984,0.2084-0.7092,0.1355-0.9176-0.1629c-0.0172-0.0246-0.0327-0.0504-0.0464-0.0771
		c-0.1729-0.3776-0.0374-0.8249,0.316-1.043c1.8371-1.1267,3.7504-2.1241,5.726-2.985c1.8889-0.8446,3.8383-1.5466,5.832-2.1"/>
	<path id="Path_25" class="st0" d="M-43.826-4.719c0.3192-0.1679,0.714-0.0453,0.882,0.2738
		c0.0148,0.0281,0.0275,0.0572,0.038,0.0872c0.1292,0.3955-0.0536,0.8255-0.428,1.007c-1.275,0.7193-2.466,1.5783-3.551,2.561
		c-0.6198,0.4559-1.1319,1.0424-1.5,1.718c-0.0489,0.4117-0.3994,0.7209-0.814,0.718c-0.3706-0.0279-0.6485-0.351-0.6206-0.7216
		c0.002-0.0263,0.0055-0.0525,0.0106-0.0784c0.3966-1.1029,1.1127-2.0627,2.057-2.757c1.1995-1.0818,2.5168-2.0254,3.927-2.813"/>
	<path id="Path_26" class="st0" d="M-36.243-14.274c0.3309-0.1362,0.7097,0.0216,0.8459,0.3526
		c0.0129,0.0313,0.0233,0.0635,0.0311,0.0964c0.0948,0.4035-0.1212,0.8155-0.507,0.967c-3.1639,1.3743-6.0184,3.372-8.393,5.874
		c-1.8866,1.5683-3.1526,3.7576-3.571,6.175c0.0208,0.4135-0.2663,0.7792-0.673,0.857c-0.3563,0.0558-0.6904-0.1878-0.7462-0.5441
		c-0.0048-0.0307-0.0074-0.0618-0.0078-0.0929c0.3747-2.8914,1.8141-5.5393,4.037-7.426c2.539-2.6686,5.5906-4.7971,8.972-6.258"/>
</g>
</svg>
